/* XPM */
static char *smileymac[] = {
/* columns rows colors chars-per-pixel */
"32 32 4 1",
"  c black",
". c #555555",
"X c #AAAAAA",
"o c gray100",
/* pixels */
"ooooo                      ooooo",
"oooo XXXXXXXXXXXXXXXXXXXXXX oooo",
"oooo XXXXXXXXXXXXXXXXXXXXXX oooo",
"oooo XXX................XXX oooo",
"oooo XX.XXXXXXXXXXXXXXXXoXX oooo",
"oooo XX.XXXXXXXXXXXXXXXXoXX oooo",
"oooo XX.XXXXXXXXXXXXXXXXoXX oooo",
"oooo XX.XXXX XXX XX XXXXoXX oooo",
"oooo XX.XXXX XXX XX XXXXoXX oooo",
"oooo XX.XXXXXXXX XXXXXXXoXX oooo",
"oooo XX.XXXXXXXX XXXXXXXoXX oooo",
"oooo XX.XXXXXXX  XXXXXXXoXX oooo",
"oooo XX.XXXXXXXXXXXXXXXXoXX oooo",
"oooo XX.XXXXX XXXX XXXXXoXX oooo",
"oooo XX.XXXXXX    XXXXXXoXX oooo",
"oooo XX.XXXXXXXXXXXXXXXXoXX oooo",
"oooo XX.XXXXXXXXXXXXXXXXoXX oooo",
"oooo XXXooooooooooooooooXXX oooo",
"oooo XXXXXXXXXXXXXXXXXXXXXX oooo",
"oooo XXXXXXXXXXXXXXXXXXXXXX oooo",
"oooo XXXXXXXXXXXXXXXXXXXXXX oooo",
"oooo XXXXXXXXXXXXXXXXXXXXXX oooo",
"oooo XXXXXXXXXXX        XXX oooo",
"oooo XXXXXXXXXXXXXXXXXXXXXX oooo",
"oooo XXXXXXXXXXXXXXXXXXXXXX oooo",
"oooo XXXXXXXXXXXXXXXXXXXXXX oooo",
"oooo XXXXXXXXXXXXXXXXXXXXXX oooo",
"ooooo                      ooooo",
"ooooo .................... ooooo",
"ooooo .................... ooooo",
"ooooo .................... ooooo",
"ooooo                      ooooo"
};
